<svg width="32" height="32" version="1.1" xmlns="http://www.w3.org/2000/svg" desc="Created with imagetracer.js version 1.2.6" ><path fill="rgb(68,90,100)" stroke="rgb(68,90,100)" stroke-width="1" opacity="0.7647058823529411" d="M 12.5 1 L 13 1.5 L 9.5 5 L 10 3.5 Q 9.25 1.25 11.5 2 L 12.5 1 Z " /><path fill="rgb(68,90,100)" stroke="rgb(68,90,100)" stroke-width="1" opacity="0.7647058823529411" d="M 15.5 1 L 17.5 2 L 19.5 1 L 19.5 2 Q 17.25 1.25 18 3.5 L 18.5 5 L 15 1.5 L 15.5 1 Z " /><path fill="rgb(68,90,100)" stroke="rgb(68,90,100)" stroke-width="1" opacity="0.7647058823529411" d="M 21.5 2 L 21.5 3 L 21.5 2 Z " /><path fill="rgb(68,90,100)" stroke="rgb(68,90,100)" stroke-width="1" opacity="0.7647058823529411" d="M 22.5 4 L 22.5 5 L 22.5 4 Z " /><path fill="rgb(68,90,100)" stroke="rgb(68,90,100)" stroke-width="1" opacity="0.7647058823529411" d="M 28.5 29 Q 30 30 27.5 31 Q 26 30 28.5 29 Z " /><path fill="rgb(0,0,0)" stroke="rgb(0,0,0)" stroke-width="1" opacity="0" d="M 0 0 L 32 0 L 32 32 L 0 32 L 0 0 Z M 12 1 L 9 4 L 9 8 L 3 8 L 3 31 L 29 31 L 29 9 L 29 8 L 23 8 Q 24 3 21 1 L 18 2 Q 16 0 12 1 Z " /><path fill="rgb(0,0,0)" stroke="rgb(0,0,0)" stroke-width="1" opacity="0" d="M 12.5 3 Q 16.25 2.25 17 4.5 L 18 8 L 10.5 8 L 10 6.5 L 12.5 3 Z " /><path fill="rgb(0,0,0)" stroke="rgb(0,0,0)" stroke-width="1" opacity="0" d="M 19.5 3 L 22 8 L 19 8 L 19.5 3 Z " /><path fill="rgb(68,90,97)" stroke="rgb(68,90,97)" stroke-width="1" opacity="0.20392156862745098" d="M 11.5 1 Q 12.25 2.75 15.5 2 L 17 1.5 Q 14.75 2.75 17.5 4 L 18 2 L 20.5 1 L 20 2.5 L 21.5 4 L 23 3.5 L 21.5 6 L 19.5 3 L 17.5 6 L 15.5 3 Q 11.75 2.25 11 4.5 L 10.5 6 L 9 3.5 L 10.5 4 L 12 2.5 L 11.5 1 Z " /><path fill="rgb(68,90,97)" stroke="rgb(68,90,97)" stroke-width="1" opacity="0.20392156862745098" d="M 3.5 30 L 3.5 31 L 3.5 30 Z " /><path fill="rgb(68,90,97)" stroke="rgb(68,90,97)" stroke-width="1" opacity="0.20392156862745098" d="M 28.5 30 L 28.5 31 L 28.5 30 Z " /><path fill="rgb(71,96,103)" stroke="rgb(71,96,103)" stroke-width="1" opacity="0.996078431372549" d="M 26.5 10 L 26.5 11 L 26.5 10 Z " /><path fill="rgb(71,96,103)" stroke="rgb(71,96,103)" stroke-width="1" opacity="0.996078431372549" d="M 18.5 12 Q 20 13 17.5 14 Q 16 13 18.5 12 Z " /><path fill="rgb(71,96,103)" stroke="rgb(71,96,103)" stroke-width="1" opacity="0.996078431372549" d="M 9.5 17 L 9.5 18 L 9.5 17 Z " /><path fill="rgb(71,96,103)" stroke="rgb(71,96,103)" stroke-width="1" opacity="0.996078431372549" d="M 13.5 17 L 13.5 18 L 13.5 17 Z " /><path fill="rgb(71,96,103)" stroke="rgb(71,96,103)" stroke-width="1" opacity="0.996078431372549" d="M 15.5 18 L 15.5 19 L 15.5 18 Z " /><path fill="rgb(71,96,103)" stroke="rgb(71,96,103)" stroke-width="1" opacity="0.996078431372549" d="M 11.5 19 L 11.5 20 L 11.5 19 Z " /><path fill="rgb(71,96,103)" stroke="rgb(71,96,103)" stroke-width="1" opacity="0.996078431372549" d="M 15.5 21 L 15.5 22 L 15.5 21 Z " /><path fill="rgb(71,96,103)" stroke="rgb(71,96,103)" stroke-width="1" opacity="0.996078431372549" d="M 16.5 26 L 17.5 27 L 19 26.5 L 17.5 28 Q 15 27 16.5 26 Z " /><path fill="rgb(71,96,103)" stroke="rgb(71,96,103)" stroke-width="1" opacity="0.996078431372549" d="M 3.5 28 L 3.5 29 L 3.5 28 Z " /><path fill="rgb(71,96,103)" stroke="rgb(71,96,103)" stroke-width="1" opacity="0.996078431372549" d="M 24.5 29 L 24.5 30 L 24.5 29 Z " /><path fill="rgb(71,96,103)" stroke="rgb(71,96,103)" stroke-width="1" opacity="0.996078431372549" d="M 5.5 30 L 5.5 31 L 5.5 30 Z " /><path fill="rgb(69,90,100)" stroke="rgb(69,90,100)" stroke-width="1" opacity="1" d="M 9.5 6 L 10 8 L 16 8.5 L 9 9 L 9.5 6 Z " /><path fill="rgb(69,90,100)" stroke="rgb(69,90,100)" stroke-width="1" opacity="1" d="M 18.5 6 L 19 8 L 22 8 L 22 6.5 L 23 6.5 L 23 8 L 25 8.5 L 25 28.5 L 24 28.5 L 24 9.5 L 23.5 9 L 18 9 L 18.5 6 Z " /><path fill="rgb(69,90,100)" stroke="rgb(69,90,100)" stroke-width="1" opacity="1" d="M 4.5 8 L 7 8.5 L 4 9 L 3.5 28 L 3 9.5 L 4.5 8 Z " /><path fill="rgb(69,90,100)" stroke="rgb(69,90,100)" stroke-width="1" opacity="1" d="M 27.5 8 L 29 8.5 L 29 28.5 L 28 28.5 L 28 9.5 L 27.5 8 Z " /><path fill="rgb(69,90,100)" stroke="rgb(69,90,100)" stroke-width="1" opacity="1" d="M 9.5 13 L 10 16.5 L 9 16.5 L 9.5 13 Z " /><path fill="rgb(69,90,100)" stroke="rgb(69,90,100)" stroke-width="1" opacity="1" d="M 11.5 13 L 12 16.5 L 11 16.5 L 11.5 13 Z " /><path fill="rgb(69,90,100)" stroke="rgb(69,90,100)" stroke-width="1" opacity="1" d="M 13.5 13 L 14 16.5 L 13 16.5 L 13.5 13 Z " /><path fill="rgb(69,90,100)" stroke="rgb(69,90,100)" stroke-width="1" opacity="1" d="M 18.5 13 L 19 25.5 L 18 25.5 L 18.5 13 Z " /><path fill="rgb(69,90,100)" stroke="rgb(69,90,100)" stroke-width="1" opacity="1" d="M 15.5 19 L 16 20.5 L 15 20.5 L 15.5 19 Z " /><path fill="rgb(69,90,100)" stroke="rgb(69,90,100)" stroke-width="1" opacity="1" d="M 11.5 20 L 12 26.5 L 11 26.5 L 11.5 20 Z " /><path fill="rgb(69,90,100)" stroke="rgb(69,90,100)" stroke-width="1" opacity="1" d="M 16.5 24 L 17 25.5 L 16 25.5 L 16.5 24 Z " /><path fill="rgb(69,90,100)" stroke="rgb(69,90,100)" stroke-width="1" opacity="1" d="M 6.5 30 L 27 30.5 L 6.5 31 L 6.5 30 Z " /><path fill="rgb(245,254,249)" stroke="rgb(245,254,249)" stroke-width="1" opacity="0.9607843137254902" d="M 8.5 8 L 9 10 L 4 11 Q 2.69 7.67 7.5 9 L 8.5 8 Z " /><path fill="rgb(245,254,249)" stroke="rgb(245,254,249)" stroke-width="1" opacity="0.9607843137254902" d="M 17.5 8 L 18 10 L 10 9.5 L 16.5 9 L 17.5 8 Z " /><path fill="rgb(245,254,249)" stroke="rgb(245,254,249)" stroke-width="1" opacity="0.9607843137254902" d="M 19.5 9 L 24 9.5 L 19.5 10 L 19.5 9 Z " /><path fill="rgb(152,254,193)" stroke="rgb(152,254,193)" stroke-width="1" opacity="1" d="M 15.5 14 L 15.5 15 L 15.5 14 Z " /><path fill="rgb(152,254,193)" stroke="rgb(152,254,193)" stroke-width="1" opacity="1" d="M 17.5 15 L 17.5 16 L 17.5 15 Z " /><path fill="rgb(152,254,193)" stroke="rgb(152,254,193)" stroke-width="1" opacity="1" d="M 10.5 17 L 10.5 18 L 10.5 17 Z " /><path fill="rgb(152,254,193)" stroke="rgb(152,254,193)" stroke-width="1" opacity="1" d="M 12.5 17 L 12.5 18 L 12.5 17 Z " /><path fill="rgb(152,254,193)" stroke="rgb(152,254,193)" stroke-width="1" opacity="1" d="M 16.5 18 L 16.5 19 L 16.5 18 Z " /><path fill="rgb(152,254,193)" stroke="rgb(152,254,193)" stroke-width="1" opacity="1" d="M 9.5 19 L 9.5 20 L 9.5 19 Z " /><path fill="rgb(152,254,193)" stroke="rgb(152,254,193)" stroke-width="1" opacity="1" d="M 13.5 19 L 13.5 20 L 13.5 19 Z " /><path fill="rgb(152,254,193)" stroke="rgb(152,254,193)" stroke-width="1" opacity="1" d="M 15.5 22 L 15.5 23 L 15.5 22 Z " /><path fill="rgb(153,255,194)" stroke="rgb(153,255,194)" stroke-width="1" opacity="1" d="M 6.5 10 L 24 10 L 24 28 L 19 28 L 19 12.5 L 17.5 12 L 15 14.5 L 15 22.5 L 16 23.5 L 16 28 L 12 28 L 12 20 L 14 19.5 L 14 12.5 L 13 12.5 L 12.5 17 L 11.5 12 L 10.5 17 L 9.5 12 L 9 20 L 11 20.5 L 11 28 L 4 28 L 4 11 L 6.5 10 Z " /><path fill="rgb(153,255,194)" stroke="rgb(153,255,194)" stroke-width="1" opacity="1" d="M 17.5 16 L 18 21 Q 15.33 22.13 16 19.5 L 17.5 16 Z " /><path fill="rgb(153,255,194)" stroke="rgb(153,255,194)" stroke-width="1" opacity="1" d="M 17.5 23 L 18 25.5 L 17 25.5 L 17.5 23 Z " /><path fill="rgb(115,182,152)" stroke="rgb(115,182,152)" stroke-width="1" opacity="1" d="M 17.5 14 L 17.5 15 L 17.5 14 Z " /><path fill="rgb(115,182,152)" stroke="rgb(115,182,152)" stroke-width="1" opacity="1" d="M 16.5 16 L 16.5 17 L 16.5 16 Z " /><path fill="rgb(115,182,152)" stroke="rgb(115,182,152)" stroke-width="1" opacity="1" d="M 11.5 17 L 12.5 19 L 14 18.5 L 12.5 20 Q 11.5 18 10.5 20 L 9 18.5 L 11 18.5 L 11.5 17 Z " /><path fill="rgb(115,182,152)" stroke="rgb(115,182,152)" stroke-width="1" opacity="1" d="M 16.5 22 L 16.5 23 L 16.5 22 Z " /><path fill="rgb(115,182,152)" stroke="rgb(115,182,152)" stroke-width="1" opacity="1" d="M 16.5 27 L 16.5 28 L 16.5 27 Z " /><path fill="rgb(115,182,152)" stroke="rgb(115,182,152)" stroke-width="1" opacity="1" d="M 18.5 27 L 18.5 28 L 18.5 27 Z " /><path fill="rgb(81,131,118)" stroke="rgb(81,131,118)" stroke-width="1" opacity="0.996078431372549" d="M 9.5 9 L 9.5 10 L 9.5 9 Z " /><path fill="rgb(81,131,118)" stroke="rgb(81,131,118)" stroke-width="1" opacity="0.996078431372549" d="M 18.5 9 L 18.5 10 L 18.5 9 Z " /><path fill="rgb(81,131,118)" stroke="rgb(81,131,118)" stroke-width="1" opacity="0.996078431372549" d="M 25.5 9 L 26 10.5 L 25 10.5 L 25.5 9 Z " /><path fill="rgb(81,131,118)" stroke="rgb(81,131,118)" stroke-width="1" opacity="0.996078431372549" d="M 27.5 9 L 28 10.5 L 27 10.5 L 27.5 9 Z " /><path fill="rgb(81,131,118)" stroke="rgb(81,131,118)" stroke-width="1" opacity="0.996078431372549" d="M 9.5 12 L 9.5 13 L 9.5 12 Z " /><path fill="rgb(81,131,118)" stroke="rgb(81,131,118)" stroke-width="1" opacity="0.996078431372549" d="M 11.5 12 L 11.5 13 L 11.5 12 Z " /><path fill="rgb(81,131,118)" stroke="rgb(81,131,118)" stroke-width="1" opacity="0.996078431372549" d="M 13.5 12 L 13.5 13 L 13.5 12 Z " /><path fill="rgb(81,131,118)" stroke="rgb(81,131,118)" stroke-width="1" opacity="0.996078431372549" d="M 16.5 14 L 17 15.5 L 15.5 18 L 15 16.5 L 16.5 14 Z " /><path fill="rgb(81,131,118)" stroke="rgb(81,131,118)" stroke-width="1" opacity="0.996078431372549" d="M 10.5 18 L 10.5 19 L 10.5 18 Z " /><path fill="rgb(81,131,118)" stroke="rgb(81,131,118)" stroke-width="1" opacity="0.996078431372549" d="M 12.5 18 L 12.5 19 L 12.5 18 Z " /><path fill="rgb(81,131,118)" stroke="rgb(81,131,118)" stroke-width="1" opacity="0.996078431372549" d="M 16.5 21 L 16.5 22 L 16.5 21 Z " /><path fill="rgb(81,131,118)" stroke="rgb(81,131,118)" stroke-width="1" opacity="0.996078431372549" d="M 16.5 23 L 16.5 24 L 16.5 23 Z " /><path fill="rgb(81,131,118)" stroke="rgb(81,131,118)" stroke-width="1" opacity="0.996078431372549" d="M 11.5 27 L 11.5 28 L 11.5 27 Z " /><path fill="rgb(81,131,118)" stroke="rgb(81,131,118)" stroke-width="1" opacity="0.996078431372549" d="M 4.5 29 L 4.5 30 L 4.5 29 Z " /><path fill="rgb(81,131,118)" stroke="rgb(81,131,118)" stroke-width="1" opacity="0.996078431372549" d="M 25.5 29 L 25.5 30 L 25.5 29 Z " /><path fill="rgb(81,131,118)" stroke="rgb(81,131,118)" stroke-width="1" opacity="0.996078431372549" d="M 27.5 29 L 27.5 30 L 27.5 29 Z " /><path fill="rgb(137,223,176)" stroke="rgb(137,223,176)" stroke-width="1" opacity="1" d="M 17.5 12 Q 19 13 16.5 14 Q 15 13 17.5 12 Z " /><path fill="rgb(137,223,176)" stroke="rgb(137,223,176)" stroke-width="1" opacity="1" d="M 15.5 15 L 15.5 16 L 15.5 15 Z " /><path fill="rgb(137,223,176)" stroke="rgb(137,223,176)" stroke-width="1" opacity="1" d="M 16.5 17 L 16.5 18 L 16.5 17 Z " /><path fill="rgb(137,223,176)" stroke="rgb(137,223,176)" stroke-width="1" opacity="1" d="M 17.5 21 L 18 22.5 L 17 22.5 L 17.5 21 Z " /><path fill="rgb(137,223,176)" stroke="rgb(137,223,176)" stroke-width="1" opacity="1" d="M 17.5 26 L 17.5 27 L 17.5 26 Z " /><path fill="rgb(121,249,173)" stroke="rgb(121,249,173)" stroke-width="1" opacity="1" d="M 4.5 28 L 4.5 29 L 4.5 28 Z " /><path fill="rgb(122,253,175)" stroke="rgb(122,253,175)" stroke-width="1" opacity="1" d="M 5.5 28 L 24 28.5 L 5.5 29 L 5.5 28 Z " /><path fill="rgb(71,92,102)" stroke="rgb(71,92,102)" stroke-width="1" opacity="0.9450980392156862" d="M 13.5 1 L 15 1.5 L 13.5 2 L 13.5 1 Z " /><path fill="rgb(71,92,102)" stroke="rgb(71,92,102)" stroke-width="1" opacity="0.9450980392156862" d="M 20.5 2 Q 23 3 21.5 4 Q 19 3 20.5 2 Z " /><path fill="rgb(71,92,102)" stroke="rgb(71,92,102)" stroke-width="1" opacity="0.9450980392156862" d="M 9.5 5 L 9.5 6 L 9.5 5 Z " /><path fill="rgb(71,92,102)" stroke="rgb(71,92,102)" stroke-width="1" opacity="0.9450980392156862" d="M 18.5 5 L 18.5 6 L 18.5 5 Z " /><path fill="rgb(71,92,102)" stroke="rgb(71,92,102)" stroke-width="1" opacity="0.9450980392156862" d="M 22.5 5 L 22.5 6 L 22.5 5 Z " /><path fill="rgb(71,92,102)" stroke="rgb(71,92,102)" stroke-width="1" opacity="0.9450980392156862" d="M 3.5 8 L 3.5 9 L 3.5 8 Z " /><path fill="rgb(71,92,102)" stroke="rgb(71,92,102)" stroke-width="1" opacity="0.9450980392156862" d="M 7.5 8 L 7.5 9 L 7.5 8 Z " /><path fill="rgb(71,92,102)" stroke="rgb(71,92,102)" stroke-width="1" opacity="0.9450980392156862" d="M 16.5 8 L 16.5 9 L 16.5 8 Z " /><path fill="rgb(76,127,114)" stroke="rgb(76,127,114)" stroke-width="1" opacity="0.8" d="M 26.5 8 L 26.5 9 L 26.5 8 Z " /><path fill="rgb(76,127,114)" stroke="rgb(76,127,114)" stroke-width="1" opacity="0.8" d="M 3.5 29 Q 6 30 4.5 31 Q 2 30 3.5 29 Z " /><path fill="rgb(79,237,145)" stroke="rgb(79,237,145)" stroke-width="1" opacity="0.9176470588235294" d="M 25.5 8 Q 28 9 26.5 10 Q 24 9 25.5 8 Z " /><path fill="rgb(85,251,155)" stroke="rgb(85,251,155)" stroke-width="1" opacity="1" d="M 25 11 Q 27.96 10.63 28 11.5 L 28 28.5 Q 26.5 31.5 25 28.5 L 25 11 Z " /><path fill="rgb(85,251,155)" stroke="rgb(85,251,155)" stroke-width="1" opacity="1" d="M 5.5 29 L 24 29.5 L 5.5 30 L 5.5 29 Z " /></svg>